<?xml version="1.0" encoding="UTF-8"?>
<!DOCTYPE svg PUBLIC "-//W3C//DTD SVG 1.1//EN" "http://www.w3.org/Graphics/SVG/1.1/DTD/svg11.dtd">
<svg xmlns="http://www.w3.org/2000/svg" version="1.1" width="281px" height="217px" style="shape-rendering:geometricPrecision; text-rendering:geometricPrecision; image-rendering:optimizeQuality; fill-rule:evenodd; clip-rule:evenodd" xmlns:xlink="http://www.w3.org/1999/xlink">
<g><path style="opacity:0.997" fill="#efefef" d="M 108.5,-0.5 C 109.833,-0.5 111.167,-0.5 112.5,-0.5C 112.5,3.5 112.5,7.5 112.5,11.5C 116.463,10.56 120.463,10.3933 124.5,11C 125.333,11.8333 126.167,12.6667 127,13.5C 128.425,20.3846 128.925,27.3846 128.5,34.5C 126.284,34.7254 124.617,33.8921 123.5,32C 125.005,26.2284 124.671,20.5617 122.5,15C 119.253,13.0986 116.087,13.2653 113,15.5C 112.5,21.8246 112.334,28.1579 112.5,34.5C 110.833,34.5 109.167,34.5 107.5,34.5C 107.189,22.7527 107.522,11.0861 108.5,-0.5 Z"/></g>
<g><path style="opacity:0.997" fill="#eeeeee" d="M 228.5,-0.5 C 229.833,-0.5 231.167,-0.5 232.5,-0.5C 232.5,3.5 232.5,7.5 232.5,11.5C 234.905,11.1336 237.238,10.4669 239.5,9.5C 243.691,9.67135 246.525,11.6714 248,15.5C 248.188,21.7482 248.688,27.9149 249.5,34C 247.559,34.7429 245.726,34.5762 244,33.5C 244.939,27.4796 244.606,21.4796 243,15.5C 239.744,13.231 236.411,13.231 233,15.5C 232.5,21.8246 232.334,28.1579 232.5,34.5C 230.833,34.5 229.167,34.5 227.5,34.5C 227.189,22.7527 227.522,11.0861 228.5,-0.5 Z"/></g>
<g><path style="opacity:0.965" fill="#f1f1f1" d="M 150.5,1.5 C 158.174,1.33365 165.841,1.50031 173.5,2C 174.337,3.01127 174.67,4.17793 174.5,5.5C 171.143,6.62666 167.809,6.62666 164.5,5.5C 164.5,15.1667 164.5,24.8333 164.5,34.5C 162.856,34.7135 161.356,34.3802 160,33.5C 159.667,24.5 159.333,15.5 159,6.5C 155.943,5.54948 152.777,5.21614 149.5,5.5C 149.433,4.04125 149.766,2.70792 150.5,1.5 Z"/></g>
<g><path style="opacity:0.981" fill="#f4f4f4" d="M 67.5,3.5 C 69.0504,5.30016 70.0504,7.46683 70.5,10C 79.5678,11.414 79.4012,12.914 70,14.5C 69.1743,19.5893 69.5076,24.5893 71,29.5C 72.6811,31.2941 74.5144,31.7941 76.5,31C 77.3366,32.0113 77.67,33.1779 77.5,34.5C 72.1475,35.2418 68.3142,33.2418 66,28.5C 65.6667,23.8333 65.3333,19.1667 65,14.5C 61.8396,12.7501 62.0062,11.0834 65.5,9.5C 66.1717,7.47048 66.8384,5.47048 67.5,3.5 Z"/></g>
<g><path style="opacity:1" fill="#f5f5f5" d="M 213.5,9.5 C 216.665,8.96354 219.331,9.79687 221.5,12C 217.95,13.1819 214.284,14.1819 210.5,15C 207.106,19.1048 206.606,23.6048 209,28.5C 212.558,31.0288 216.391,31.8621 220.5,31C 221.833,32 221.833,33 220.5,34C 206.464,36.0598 200.964,30.2264 204,16.5C 206.505,13.1474 209.671,10.8141 213.5,9.5 Z"/></g>
<g><path style="opacity:1" fill="#f4f4f4" d="M 47.5,9.5 C 50.4824,9.96286 53.4824,10.2962 56.5,10.5C 56.5,18.5 56.5,26.5 56.5,34.5C 54.1727,34.7529 52.1727,34.0863 50.5,32.5C 44.3683,35.9788 39.535,34.6455 36,28.5C 33.2488,17.9817 37.0821,11.6484 47.5,9.5 Z M 45.5,13.5 C 47.5,13.5 49.5,13.5 51.5,13.5C 51.8282,18.8746 51.4948,24.2079 50.5,29.5C 43.9654,32.5594 40.2987,30.3927 39.5,23C 39.6457,18.518 41.6457,15.3513 45.5,13.5 Z"/></g>
<g><path style="opacity:1" fill="#f4f4f4" d="M -0.5,0.5 C 0.238911,0.368989 0.905578,0.535656 1.5,1C 5.32719,5.8267 9.49385,10.3267 14,14.5C 18.145,10.6855 21.9784,6.51881 25.5,2C 26.448,1.51722 27.448,1.35055 28.5,1.5C 28.5,12.5 28.5,23.5 28.5,34.5C 26.2841,34.7254 24.6174,33.8921 23.5,32C 24.4788,25.2555 24.8122,18.4222 24.5,11.5C 20.6377,13.8459 17.1377,16.8459 14,20.5C 11.1053,16.6936 7.772,13.3603 4,10.5C 3.84093,18.4724 4.0076,26.4724 4.5,34.5C 2.83333,34.5 1.16667,34.5 -0.5,34.5C -0.5,23.1667 -0.5,11.8333 -0.5,0.5 Z"/></g>
<g><path style="opacity:1" fill="#f2f2f2" d="M 262.5,9.5 C 266.302,8.88034 269.635,9.71367 272.5,12C 268.95,13.1819 265.284,14.1819 261.5,15C 261.043,15.414 260.709,15.914 260.5,16.5C 264.034,19.5237 267.867,22.1904 272,24.5C 273.544,29.6228 271.71,32.7895 266.5,34C 262.848,34.4986 259.182,34.6653 255.5,34.5C 255.5,33.1667 255.5,31.8333 255.5,30.5C 272.091,30.8334 272.757,27.6668 257.5,21C 255.813,19.087 255.313,16.9203 256,14.5C 257.965,12.4497 260.132,10.783 262.5,9.5 Z"/></g>
<g><path style="opacity:0.889" fill="#f5f5f5" d="M 96.5,9.5 C 97.8333,9.5 99.1667,9.5 100.5,9.5C 100.66,11.1992 100.494,12.8659 100,14.5C 90.1352,12.364 86.1352,16.364 88,26.5C 89.866,29.4337 92.5326,31.1004 96,31.5C 97.6667,30.1667 99.3333,30.1667 101,31.5C 101.617,32.4491 101.451,33.2825 100.5,34C 90.1378,36.2789 84.1378,32.2789 82.5,22C 84.1421,14.3589 88.8087,10.1922 96.5,9.5 Z"/></g>
<g><path style="opacity:1" fill="#f5f5f5" d="M 186.5,9.5 C 195.275,9.36585 199.275,13.6992 198.5,22.5C 193.167,22.5 187.833,22.5 182.5,22.5C 183.57,29.7937 187.737,32.4604 195,30.5C 197.341,31.0069 197.841,32.1735 196.5,34C 181.834,36.6685 176.001,30.8351 179,16.5C 180.742,13.2543 183.242,10.921 186.5,9.5 Z M 185.5,13.5 C 187.527,13.3379 189.527,13.5045 191.5,14C 193.211,15.1332 193.711,16.6332 193,18.5C 189.392,19.9493 185.892,19.7826 182.5,18C 183.386,16.3853 184.386,14.8853 185.5,13.5 Z"/></g>
<g><path style="opacity:0.998" fill="#f4f4f4" d="M -0.5,55.5 C 11.2929,54.9015 22.9596,55.7348 34.5,58C 43.6105,62.1106 50.4438,68.6106 55,77.5C 62.0682,91.2061 69.0682,104.873 76,118.5C 83,104.833 90,91.1667 97,77.5C 102.041,67.4583 109.875,60.6249 120.5,57C 173.795,55.5217 227.129,55.0217 280.5,55.5C 280.5,63.8333 280.5,72.1667 280.5,80.5C 264.167,80.5 247.833,80.5 231.5,80.5C 231.5,125.833 231.5,171.167 231.5,216.5C 220.833,216.5 210.167,216.5 199.5,216.5C 199.667,171.499 199.5,126.499 199,81.5C 183.578,80.509 168.078,80.1756 152.5,80.5C 152.5,125.833 152.5,171.167 152.5,216.5C 142.5,216.5 132.5,216.5 122.5,216.5C 123.146,174.239 123.479,132.072 123.5,90C 122.167,89.3333 120.833,89.3333 119.5,90C 104.366,115.764 89.8658,141.931 76,168.5C 62.6667,143.833 49.3333,119.167 36,94.5C 34.6667,91.8333 32.6667,89.8333 30,88.5C 29.5,131.165 29.3333,173.832 29.5,216.5C 29.1667,216.5 28.8333,216.5 28.5,216.5C 19.3483,215.506 10.015,215.173 0.5,215.5C 0.829042,201.656 0.495709,187.99 -0.5,174.5C -0.5,134.833 -0.5,95.1667 -0.5,55.5 Z"/></g>
<g><path style="opacity:0.999" fill="#d6d6d6" d="M -0.5,174.5 C 0.495709,187.99 0.829042,201.656 0.5,215.5C 10.015,215.173 19.3483,215.506 28.5,216.5C 18.8333,216.5 9.16667,216.5 -0.5,216.5C -0.5,202.5 -0.5,188.5 -0.5,174.5 Z"/></g>
</svg>
